<svg width="495" height="317" viewBox="0 0 495 317" fill="none" xmlns="http://www.w3.org/2000/svg">
<path d="M413.615 228.816L411.561 249.476L422.94 253.198L468.376 228.938V202.385L413.615 228.816Z" fill="white"/>
<path d="M322.341 197.328L418.782 228.752L468.376 203.618V186.766L390.145 168.054L322.341 197.328Z" fill="#27C195"/>
<path opacity="0.259995" d="M418.782 228.752L490.967 192.17L452.323 182.926C452.323 182.926 451.746 192.74 440.316 206.39C434.476 213.365 418.782 228.752 418.782 228.752Z" fill="#00946C"/>
<path d="M488.391 215.607C488.391 215.607 440.694 244.469 423.589 250.226C421.905 250.793 420.521 250.938 419.406 250.857C417.923 250.751 416.6 249.668 416.038 248.048C414.624 243.973 414.576 237.768 419.319 228.799C419.687 228.103 419.391 227.184 418.722 226.956L322.342 197.328C322.342 197.328 317.155 200.208 318.206 211.957C319.256 223.705 325.557 224.324 325.557 224.324L419.047 253.964C419.534 254.171 420.627 254.332 421.26 254.207C430.306 252.413 490.761 218.213 490.603 216.91C490.445 215.607 488.391 215.607 488.391 215.607Z" fill="#27C195"/>
<path opacity="0.259995" d="M488.391 215.607C488.391 215.607 440.694 244.469 423.589 250.226C421.905 250.793 420.521 250.938 419.406 250.857C417.923 250.751 416.6 249.668 416.038 248.048C414.624 243.973 414.576 237.768 419.319 228.799C419.687 228.103 419.391 227.184 418.722 226.956L322.342 197.328C322.342 197.328 317.155 200.208 318.206 211.957C319.256 223.705 325.557 224.324 325.557 224.324L419.047 253.964C419.534 254.171 420.627 254.332 421.26 254.207C430.306 252.413 490.761 218.213 490.603 216.91C490.445 215.607 488.391 215.607 488.391 215.607Z" fill="#00946C"/>
<path opacity="0.380005" d="M334.274 210.389L333.712 220.231L401.757 241.6L402.038 231.826L334.274 210.389Z" fill="white"/>
<path d="M318.069 170.16L316.386 187.426L423.851 219.416L425.97 197.542L318.069 170.16Z" fill="white"/>
<path d="M317.253 185.062C322.391 186.436 343.037 193.401 364.889 200.287C388.713 207.795 413.928 215.253 420.991 216.403C421.938 216.557 422.798 215.818 422.835 214.823L423.281 202.64C423.304 202.036 423.64 201.491 424.161 201.219L491.789 167.185C492.651 166.734 493.786 167.14 494.017 168.112C494.713 171.041 494.672 175.463 494.431 180.611C494.404 181.204 494.086 181.74 493.58 182.018C486.116 186.115 429.445 218.102 423.851 219.417C418.362 220.707 330.683 192.109 316.386 187.426C315.389 187.099 314.93 186.711 315.483 185.789C315.483 185.789 315.787 184.67 317.253 185.062" fill="#FFB354"/>
<path opacity="0.369995" d="M317.253 185.062C322.391 186.436 343.037 193.401 364.889 200.287C388.713 207.795 413.928 215.253 420.991 216.403C421.938 216.557 422.798 215.818 422.835 214.823L423.281 202.64C423.304 202.036 423.64 201.491 424.161 201.219L491.789 167.185C492.651 166.734 493.786 167.14 494.017 168.112C494.713 171.041 494.672 175.463 494.431 180.611C494.404 181.204 494.086 181.74 493.58 182.018C486.116 186.115 429.445 218.102 423.851 219.417C418.362 220.707 330.683 192.109 316.386 187.426C315.389 187.099 314.93 186.711 315.483 185.789C315.483 185.789 315.787 184.67 317.253 185.062" fill="#D78D38"/>
<path d="M316.252 169.941L393.228 137.667L493.255 167.099C493.469 167.162 493.495 167.467 493.295 167.569L423.268 202.982L316.287 170.657C315.954 170.556 315.93 170.076 316.252 169.941Z" fill="#FFB354"/>
<path opacity="0.369995" d="M423.268 202.982L493.295 167.569C493.495 167.467 493.469 167.162 493.255 167.099L457.773 156.658C457.773 156.658 454.94 170.178 449.595 177.727C444.25 185.276 423.268 202.982 423.268 202.982Z" fill="#D78D38"/>
<path d="M480.02 160.421L479.874 139.652L411.846 168.607L409.948 185.435L417.171 187.519C419.295 188.131 421.559 187.95 423.566 187.004L480.02 160.421Z" fill="white"/>
<path d="M447.303 162.456C447.087 162.456 446.88 162.334 446.783 162.125C446.649 161.838 446.775 161.498 447.061 161.365L479.707 146.201C479.993 146.067 480.335 146.193 480.466 146.479C480.6 146.766 480.475 147.106 480.189 147.239L447.543 162.403C447.465 162.439 447.383 162.456 447.303 162.456Z" fill="#223663"/>
<path d="M459.565 161.968C459.352 161.968 459.148 161.848 459.049 161.644C458.911 161.359 459.031 161.017 459.317 160.88L480.076 150.893C480.36 150.756 480.702 150.876 480.839 151.161C480.976 151.446 480.857 151.788 480.571 151.925L459.813 161.911C459.733 161.95 459.648 161.968 459.565 161.968Z" fill="#223663"/>
<path d="M327.873 143.251L389.197 119.562C389.869 119.303 390.597 119.244 391.299 119.392L480.879 138.287C481.635 138.447 481.742 139.525 481.034 139.842L416.675 168.605L327.873 143.251Z" fill="#E55F72"/>
<path opacity="0.220001" d="M448.243 131.403L480.879 138.288C481.636 138.447 481.743 139.525 481.034 139.842L416.675 168.606C416.675 168.606 437.094 155.979 442.658 146.122C448.223 136.265 448.243 131.403 448.243 131.403Z" fill="#A93F53"/>
<path d="M480.134 158.341C474.155 161.888 437.005 181.107 422.487 185.416C419.645 186.259 416.254 185.444 414.823 182.269C412.418 176.933 414.245 170.871 417.17 168.643C417.689 168.249 417.237 167.327 416.62 167.142L327.874 143.251C327.874 143.251 322.808 145.355 323.778 154.925C324.748 164.495 330.568 164.998 330.568 164.998C330.568 164.998 414.873 188.446 419.328 188.076C432.419 186.989 480.366 160.781 480.903 159.986C481.258 159.461 480.903 157.885 480.134 158.341Z" fill="#E55F72"/>
<path d="M417.171 168.874C417.098 168.874 417.023 168.863 416.949 168.843C416.949 168.843 394.967 162.657 372.986 156.448C361.996 153.344 351.005 150.234 342.762 147.89C338.64 146.717 335.205 145.735 332.801 145.041C328.41 143.774 328.41 143.774 328.436 143.104C328.451 142.727 328.723 142.408 329.093 142.334C329.274 142.299 329.452 142.325 329.607 142.398C331.801 143.149 387.858 158.961 417.391 167.272C417.826 167.394 418.078 167.844 417.956 168.278C417.855 168.638 417.528 168.874 417.171 168.874Z" fill="#223663"/>
<path opacity="0.380005" d="M330.721 150.682L330.223 159.384L390.393 176.642L390.643 167.999L330.721 150.682Z" fill="white"/>
<path d="M423.269 203.798C422.975 203.798 422.691 203.639 422.545 203.36C422.337 202.961 422.491 202.468 422.89 202.259L491.412 166.461C491.81 166.253 492.304 166.407 492.513 166.807C492.722 167.206 492.567 167.699 492.167 167.908L423.646 203.705C423.525 203.768 423.396 203.798 423.269 203.798Z" fill="#223663"/>
<path d="M357.535 188.699C357.48 188.699 357.424 188.69 357.369 188.673L317.175 176.516C316.872 176.424 316.7 176.105 316.792 175.803C316.884 175.5 317.202 175.328 317.506 175.421L357.7 187.578C358.003 187.669 358.174 187.989 358.083 188.291C358.008 188.539 357.781 188.699 357.535 188.699Z" fill="#223663"/>
<path d="M367.096 197.209C367.04 197.209 366.982 197.2 366.926 197.183L316.585 181.58C316.283 181.487 316.114 181.166 316.208 180.865C316.301 180.563 316.621 180.393 316.924 180.488L367.265 196.09C367.566 196.183 367.736 196.504 367.642 196.805C367.566 197.051 367.34 197.209 367.096 197.209Z" fill="#223663"/>
<path d="M454.61 215.627C454.406 215.627 454.207 215.517 454.104 215.324C453.955 215.046 454.061 214.699 454.34 214.55L486.037 197.636C486.313 197.486 486.663 197.592 486.811 197.871C486.96 198.15 486.855 198.497 486.575 198.646L454.878 215.561C454.793 215.606 454.701 215.627 454.61 215.627Z" fill="#223663"/>
<path d="M450.501 225.075C450.298 225.075 450.101 224.967 449.997 224.775C449.847 224.497 449.951 224.15 450.228 223.999L486.621 204.341C486.9 204.192 487.247 204.295 487.397 204.573C487.547 204.851 487.443 205.198 487.165 205.349L450.773 225.007C450.686 225.053 450.593 225.075 450.501 225.075Z" fill="#223663"/>
<path d="M441.697 236.809C441.494 236.809 441.296 236.701 441.193 236.509C441.042 236.232 441.146 235.884 441.424 235.734L486.767 211.2C487.046 211.048 487.392 211.152 487.542 211.43C487.693 211.709 487.59 212.056 487.312 212.206L441.968 236.741C441.882 236.788 441.789 236.809 441.697 236.809Z" fill="#223663"/>
<path d="M418.042 228.431C417.96 228.431 417.877 228.418 417.795 228.393L321.094 197.772C320.665 197.636 320.426 197.177 320.562 196.748C320.698 196.318 321.155 196.081 321.587 196.216L418.289 226.837C418.718 226.973 418.956 227.432 418.82 227.861C418.71 228.209 418.388 228.431 418.042 228.431Z" fill="#223663"/>
<path d="M464.737 133.121L464.329 116.305L409.642 140.702L408.341 154.355L414.219 155.942C415.948 156.408 417.778 156.229 419.391 155.436L464.737 133.121Z" fill="white"/>
<path d="M438.263 135.226C438.09 135.226 437.925 135.13 437.845 134.965C437.733 134.734 437.829 134.456 438.06 134.345L464.284 121.61C464.516 121.497 464.793 121.594 464.904 121.824C465.016 122.054 464.92 122.332 464.69 122.444L438.465 135.179C438.4 135.211 438.33 135.226 438.263 135.226Z" fill="#223663"/>
<path d="M448.186 134.659C448.016 134.659 447.853 134.565 447.771 134.404C447.657 134.175 447.749 133.897 447.977 133.782L464.649 125.404C464.88 125.289 465.156 125.382 465.271 125.61C465.386 125.839 465.294 126.118 465.065 126.232L448.394 134.61C448.327 134.643 448.256 134.659 448.186 134.659Z" fill="#223663"/>
<path d="M341.287 121.339L390.617 101.301C391.158 101.081 391.747 101.023 392.317 101.133L465.124 115.185C465.739 115.304 465.841 116.175 465.271 116.441L413.553 140.633L341.287 121.339Z" fill="#3D7BDC"/>
<path d="M438.598 110.065L465.124 115.185C465.739 115.304 465.841 116.175 465.271 116.442L413.553 140.633C413.553 140.633 429.913 130.123 434.282 122.063C438.65 114.003 438.598 110.065 438.598 110.065Z" fill="#2F74C5"/>
<path d="M464.801 131.435C460.008 134.391 430.191 150.473 418.495 154.165C416.204 154.887 413.448 154.275 412.245 151.723C410.223 147.435 411.618 142.502 413.955 140.656C414.37 140.329 413.991 139.59 413.489 139.449L341.287 121.339C341.287 121.339 337.215 123.114 338.134 130.85C339.053 138.586 343.773 138.913 343.773 138.913C343.773 138.913 412.371 156.725 415.974 156.363C426.559 155.3 465.022 133.408 465.446 132.756C465.726 132.326 465.417 131.054 464.801 131.435Z" fill="#3D7BDC"/>
<path d="M413.948 140.898C413.887 140.898 413.826 140.89 413.765 140.874C413.765 140.874 395.878 136.172 377.991 131.45C369.047 129.09 360.103 126.724 353.395 124.941C350.04 124.049 347.246 123.301 345.289 122.773C341.673 121.797 341.673 121.797 341.686 121.211L343.116 121.27L342.402 121.226L342.667 120.562C343.894 120.994 389.948 133.132 414.129 139.49C414.512 139.59 414.74 139.981 414.64 140.363C414.555 140.685 414.265 140.898 413.948 140.898Z" fill="#223663"/>
<path d="M380.713 118.859C380.298 118.859 379.903 118.613 379.735 118.205C379.511 117.665 379.768 117.045 380.308 116.823L397.47 109.735C398.012 109.51 398.629 109.769 398.852 110.309C399.076 110.849 398.819 111.468 398.278 111.691L381.117 118.779C380.984 118.834 380.848 118.859 380.713 118.859Z" fill="#223663"/>
<path d="M387.627 123.018C387.211 123.018 386.817 122.772 386.649 122.364C386.425 121.824 386.682 121.204 387.222 120.982L404.384 113.894C404.927 113.669 405.543 113.928 405.766 114.468C405.989 115.008 405.732 115.627 405.192 115.85L388.031 122.938C387.898 122.993 387.761 123.018 387.627 123.018Z" fill="#223663"/>
<path opacity="0.279999" d="M424.518 122.636C424.59 125.236 414.199 126.509 401.116 126.509C388.034 126.509 377.357 124.939 377.428 122.339C377.504 119.589 388.034 118.994 401.116 118.994C414.199 118.994 424.436 119.664 424.518 122.636Z" fill="#223663"/>
<path d="M422.846 106.61C422.963 102.728 423.085 98.449 423.187 94.3904C427.209 93.6142 434.694 93.938 435.164 99.2887C435.815 106.713 428.003 106.959 422.846 106.61ZM440.413 98.1399C439.537 88.8302 429.04 88.1408 423.313 88.9292C423.379 85.6833 423.422 82.8242 423.422 80.7657C423.422 79.899 422.746 79.1993 421.911 79.1954L379.043 78.9828C378.324 78.9789 377.743 79.5848 377.748 80.3314C377.806 88.7647 379.22 119.815 379.218 119.89C379.15 122.491 388.51 124.061 400.954 124.061C413.398 124.061 422.485 122.788 422.417 120.187C422.416 120.129 422.521 117.017 422.664 112.497C430.563 113.454 441.642 111.19 440.413 98.1399" fill="white"/>
<path opacity="0.139999" d="M422.846 106.61C422.963 102.728 423.085 98.449 423.187 94.3904C427.209 93.6142 434.694 93.938 435.164 99.2887C435.815 106.713 428.003 106.959 422.846 106.61ZM400.954 124.061C413.398 124.061 422.485 122.788 422.417 120.187C422.416 120.129 422.521 117.017 422.664 112.497C430.563 113.454 441.642 111.19 440.413 98.1399C439.537 88.8302 429.04 88.1408 423.313 88.9292C423.379 85.6833 423.422 82.8242 423.422 80.7657C423.422 80.7657 416.954 103.537 411.436 112.968C405.918 122.399 400.954 124.061 400.954 124.061" fill="#223663"/>
<path d="M423.416 80.4585C423.488 83.0593 413.097 83.5052 400.015 83.5052C386.933 83.5052 377.688 82.7618 377.76 80.161C377.836 77.4124 386.933 76.8169 400.015 76.8169C413.097 76.8169 423.335 77.487 423.416 80.4585Z" fill="#1054A4"/>
<path opacity="0.110001" d="M394.022 13.039C395.965 13.2825 397.654 14.6889 398.513 16.5875C399.49 18.7482 399.431 21.2532 398.9 23.5636C398.465 25.4596 397.62 27.4134 395.951 28.4112C394.962 29.0023 393.785 29.1931 392.634 29.2343C391.348 29.2799 390.012 29.1385 388.891 28.5038C386.773 27.3036 385.92 24.5704 386.226 22.1547C386.619 19.0656 388.506 14.4968 391.679 13.321C392.476 13.0255 393.268 12.9452 394.022 13.039Z" fill="white"/>
<path opacity="0.110001" d="M394.983 66.8159C395.228 65.9884 395.773 65.2887 396.165 64.5203C397.829 61.2558 396.588 57.3366 395.426 53.8607C394.014 49.6344 392.75 45.0355 394.112 40.7918C395.672 35.9237 400.291 32.7202 402.864 28.3031C404.944 24.7308 405.596 20.5347 406.302 16.462C407.008 12.3898 407.863 8.19309 410.256 4.82258C412.648 1.45207 416.996 -0.878243 420.953 0.317433C423.195 0.994619 425.024 2.70879 426.217 4.72492C428.283 8.21622 428.565 12.537 427.827 16.5268C427.089 20.5161 425.413 24.2624 423.751 27.9638C422.221 31.371 420.669 34.8154 418.371 37.7593C417.174 39.2935 415.755 40.7263 415.103 42.56C413.683 46.5524 416.316 50.7748 416.675 54.9973C416.979 58.585 415.504 62.2806 412.814 64.6739C411.054 66.239 408.863 67.2335 406.984 68.6528C403.808 71.0506 401.596 74.6884 400.927 78.6108C400.927 78.6108 393.861 70.6015 394.983 66.8159Z" fill="white"/>
<path d="M292.149 62.2567L288.626 69.7642L223.513 60.5682C235.911 59.0796 248.455 58.1975 260.94 58.0786C271.742 57.9751 281.767 59.3501 292.149 62.2567Z" fill="white"/>
<path d="M170.226 25.0923L224.155 60.615C224.475 60.8257 224.835 60.9587 225.216 61.0043C230.751 61.6654 274.725 66.9185 288.044 68.4951C289.589 68.6782 290.579 70.2273 290.1 71.7069L268.174 138.647C267.83 139.707 266.819 140.405 265.706 140.351L212.539 137.775C212.364 137.767 212.19 137.74 212.02 137.694L199.994 134.476C199.727 134.404 199.473 134.289 199.244 134.133L150.618 101.08C149.772 100.505 149.368 99.4677 149.603 98.4718L166.466 26.5861C166.861 24.9175 168.794 24.1491 170.226 25.0923Z" fill="#3D7BDC"/>
<path d="M288.044 68.4952C289.589 68.6783 290.579 70.2267 290.1 71.707L268.174 138.647C267.83 139.706 266.819 140.405 265.706 140.351L222.037 138.235C222.037 138.235 242.146 128.587 258.427 110.901C274.708 93.2157 288.044 68.4952 288.044 68.4952Z" fill="#2F74C5"/>
<path d="M199.703 134.756C199.637 134.756 199.569 134.748 199.502 134.731C199.065 134.62 198.801 134.176 198.912 133.739L218.232 57.622C218.344 57.1851 218.789 56.9197 219.224 57.0315C219.66 57.1427 219.925 57.5866 219.815 58.0235L200.494 134.141C200.4 134.51 200.068 134.756 199.703 134.756Z" fill="#223663"/>
<path d="M212.454 138.124C212.387 138.124 212.319 138.115 212.251 138.098C211.815 137.986 211.551 137.542 211.663 137.105L230.902 61.9435C231.013 61.5066 231.455 61.2419 231.895 61.3556C232.331 61.4667 232.595 61.9113 232.483 62.3482L213.244 137.509C213.15 137.878 212.818 138.124 212.454 138.124Z" fill="#223663"/>
<path opacity="0.440002" d="M242.197 87.4454C244.387 87.7069 264.356 89.8271 264.356 89.8271L259.799 107.417L238.558 105.234L242.197 87.4454Z" fill="white"/>
<path d="M131.059 237.988L140.388 221.237L72.5689 213.557L63.3909 226.212L68.2455 231.171C69.6738 232.629 71.5749 233.512 73.6174 233.666L131.059 237.988Z" fill="white"/>
<path d="M137.233 227.476C137.218 227.476 137.204 227.476 137.19 227.475L104.068 224.809C103.777 224.785 103.56 224.531 103.583 224.24C103.607 223.949 103.857 223.725 104.153 223.755L137.274 226.421C137.565 226.445 137.782 226.7 137.759 226.991C137.736 227.267 137.505 227.476 137.233 227.476Z" fill="#223663"/>
<path d="M170.579 145.717C170.567 145.717 170.555 145.717 170.543 145.716L149.325 144.297C149.033 144.277 148.813 144.026 148.832 143.734C148.852 143.443 149.106 143.224 149.395 143.242L170.614 144.661C170.905 144.681 171.125 144.932 171.106 145.223C171.087 145.503 170.854 145.717 170.579 145.717Z" fill="#223663"/>
<path d="M16.6437 154.996L76.6813 163.857C77.3386 163.954 77.9503 164.237 78.4469 164.675L141.815 220.597C142.351 221.07 141.947 221.984 141.233 221.916L76.4488 215.752L16.6437 154.996Z" fill="#FFB2DA"/>
<path d="M118.729 200.224L141.815 220.597C142.351 221.07 141.947 221.984 141.233 221.916L76.4489 215.752C76.4489 215.752 98.5955 214.896 107.549 209.508C116.502 204.12 118.729 200.224 118.729 200.224Z" fill="#FFA6CC"/>
<path d="M132.097 236.368C125.681 236.499 87.0947 235.042 73.4726 231.899C70.8062 231.284 68.4528 229.088 68.7477 225.887C69.2431 220.506 73.4674 216.467 76.8302 216.008C77.4265 215.926 77.4824 214.981 77.0705 214.551L16.6436 154.996C16.6436 154.996 11.6174 154.383 8.04449 162.511C4.4716 170.64 8.91763 173.692 8.91763 173.692C8.91763 173.692 65.9779 230.871 69.7256 232.6C80.7359 237.68 131.173 238.434 131.966 238.04C132.49 237.779 132.922 236.352 132.097 236.368Z" fill="#FFB2DA"/>
<path d="M77.0969 216.353C76.8868 216.353 76.6774 216.273 76.5174 216.112C76.5174 216.112 61.672 201.145 46.8375 186.16C39.4206 178.668 32.0056 171.17 26.4506 165.538C23.6725 162.721 21.3595 160.37 19.743 158.719C16.758 155.669 16.758 155.669 17.1094 155.1C17.308 154.78 17.7018 154.636 18.0603 154.754C18.2338 154.811 18.3758 154.921 18.4728 155.061C19.9345 156.702 57.7477 194.87 77.6765 214.962C77.9938 215.282 77.9919 215.799 77.672 216.117C77.5126 216.274 77.3044 216.353 77.0969 216.353Z" fill="#223663"/>
<path d="M78.3634 178.905C78.2882 178.905 78.2131 178.9 78.136 178.889L57.183 175.921C56.3047 175.797 55.6937 174.984 55.8184 174.105C55.9424 173.228 56.7532 172.614 57.6334 172.741L78.587 175.708C79.4653 175.833 80.0763 176.646 79.9516 177.524C79.8379 178.326 79.1511 178.905 78.3634 178.905Z" fill="#E38BB4"/>
<path d="M82.7466 186.989C82.6714 186.989 82.5963 186.984 82.5192 186.973L61.5662 184.005C60.6879 183.881 60.0763 183.068 60.2009 182.189C60.3256 181.311 61.137 180.7 62.0166 180.825L82.9702 183.792C83.8485 183.917 84.4595 184.73 84.3348 185.608C84.2211 186.41 83.5343 186.989 82.7466 186.989Z" fill="#E38BB4"/>
<path d="M205.875 231.185L265.737 241.162C266.392 241.271 266.999 241.566 267.487 242.013L329.803 299.106C330.329 299.589 329.908 300.495 329.195 300.414L264.538 293.043L205.875 231.185Z" fill="#27C195"/>
<path d="M319.793 314.693C313.374 314.704 274.823 312.528 261.261 309.133C258.607 308.468 256.295 306.228 256.649 303.034C257.244 297.663 261.543 293.703 264.914 293.307C265.512 293.236 265.586 292.292 265.181 291.856L205.875 231.184C205.875 231.184 200.861 230.478 197.137 238.539C193.414 246.6 197.802 249.734 197.802 249.734C197.802 249.734 253.788 307.965 257.502 309.764C268.416 315.048 318.83 316.741 319.631 316.362C320.159 316.112 320.618 314.692 319.793 314.693Z" fill="#27C195"/>
<path d="M265.19 293.658C264.975 293.658 264.76 293.573 264.6 293.405C264.6 293.405 250.036 278.165 235.484 262.906C228.206 255.276 220.933 247.642 215.484 241.907C212.759 239.039 210.49 236.645 208.905 234.964C205.977 231.86 205.977 231.86 206.338 231.297C206.543 230.981 206.939 230.844 207.296 230.969C207.469 231.029 207.608 231.142 207.702 231.283C209.133 232.952 246.229 271.818 265.78 292.278C266.091 292.603 266.08 293.12 265.754 293.431C265.596 293.582 265.392 293.658 265.19 293.658Z" fill="#223663"/>
<path opacity="0.520004" d="M267.362 256.82C267.277 256.82 267.191 256.814 267.106 256.8L246.211 253.442C245.335 253.301 244.739 252.477 244.879 251.601C245.021 250.725 245.846 250.129 246.72 250.27L267.615 253.628C268.491 253.769 269.087 254.593 268.947 255.469C268.819 256.259 268.137 256.82 267.362 256.82Z" fill="#00946C"/>
<path opacity="0.520004" d="M271.4 264.404C271.315 264.404 271.229 264.397 271.144 264.384L250.249 261.025C249.373 260.884 248.777 260.06 248.918 259.185C249.059 258.308 249.886 257.713 250.758 257.853L271.653 261.211C272.529 261.352 273.125 262.176 272.985 263.052C272.857 263.842 272.175 264.404 271.4 264.404Z" fill="#00946C"/>
<path d="M6.91578 227.692C6.91578 229.602 5.36737 231.15 3.45789 231.15C1.5484 231.15 0 229.602 0 227.692C0 225.782 1.5484 224.234 3.45789 224.234C5.36737 224.234 6.91578 225.782 6.91578 227.692Z" fill="#FFA331"/>
<path d="M175.283 192.779C175.283 194.689 173.734 196.237 171.825 196.237C169.915 196.237 168.367 194.689 168.367 192.779C168.367 190.869 169.915 189.321 171.825 189.321C173.734 189.321 175.283 190.869 175.283 192.779Z" fill="#FFB2DA"/>
<path d="M272.418 176.204C272.418 178.114 270.871 179.662 268.961 179.662C267.051 179.662 265.503 178.114 265.503 176.204C265.503 174.295 267.051 172.746 268.961 172.746C270.871 172.746 272.418 174.295 272.418 176.204Z" fill="#3D7BDC"/>
<path d="M397.612 286.818C397.612 288.727 396.064 290.276 394.153 290.276C392.245 290.276 390.696 288.727 390.696 286.818C390.696 284.908 392.245 283.359 394.153 283.359C396.064 283.359 397.612 284.908 397.612 286.818Z" fill="#FFB354"/>
<path d="M356.462 27.4319C356.462 29.3414 354.913 30.8898 353.004 30.8898C351.094 30.8898 349.545 29.3414 349.545 27.4319C349.545 25.5218 351.094 23.974 353.004 23.974C354.913 23.974 356.462 25.5218 356.462 27.4319Z" fill="#27C195"/>
<path d="M436.238 272.298L436.356 277.758L441.584 279.334L436.428 281.133L436.545 286.593L433.241 282.244L428.084 284.043L431.198 279.557L427.895 275.208L433.123 276.784L436.238 272.298Z" fill="#3D7BDC"/>
<path d="M179.136 145.072L181.185 150.12L186.62 149.73L182.452 153.24L184.502 158.288L179.877 155.409L175.709 158.918L177.018 153.629L172.392 150.75L177.826 150.361L179.136 145.072Z" fill="#E55F72"/>
<path d="M278.994 219.795L279.627 225.556L285.301 226.734L280.018 229.116L280.652 234.877L276.753 230.589L271.469 232.971L274.344 227.938L270.445 223.649L276.119 224.827L278.994 219.795Z" fill="#FFB354"/>
<path d="M439.924 41.3409L442.727 47.1612L449.128 46.2938L444.46 50.7579L447.261 56.5782L441.573 53.5167L436.904 57.9807L438.058 51.6252L432.369 48.5637L438.771 47.697L439.924 41.3409Z" fill="#FFB2DA"/>
</svg>
